<svg xmlns="http://www.w3.org/2000/svg" xmlns:xlink="http://www.w3.org/1999/xlink" contentStyleType="text/css" data-diagram-type="CLASS" height="771px" preserveAspectRatio="none" style="width:557px;height:771px;background:#FFFFFF;" version="1.1" viewBox="0 0 557 771" width="557px" zoomAndPan="magnify"><defs/><g><!--class Room--><g class="entity" data-entity="Room" data-source-line="2" data-uid="ent0002" id="entity_Room"><rect fill="#F1F1F1" height="113.1875" rx="2.5" ry="2.5" style="stroke:#181818;stroke-width:0.5;" width="189.6797" x="12.92" y="510.27"/><ellipse cx="83.2618" cy="526.27" fill="#ADD1B2" rx="11" ry="11" style="stroke:#181818;stroke-width:1;"/><path d="M87.3712,532.27 L79.6524,532.27 L79.6524,519.8794 L87.3712,519.8794 L87.3712,522.0356 L82.1055,522.0356 L82.1055,524.7075 L86.8712,524.7075 L86.8712,526.8638 L82.1055,526.8638 L82.1055,530.1138 L87.3712,530.1138 L87.3712,532.27 Z " fill="#000000"/><text fill="#000000" font-family="sans-serif" font-size="14" lengthAdjust="spacing" textLength="40.4961" x="103.7618" y="531.1167">Room</text><line style="stroke:#181818;stroke-width:0.5;" x1="13.92" x2="201.5997" y1="542.27" y2="542.27"/><ellipse cx="23.92" cy="555.9184" fill="#000000" rx="3" ry="3" style="stroke:#000000;stroke-width:1;"/><text fill="#000000" font-family="sans-serif" font-size="14" lengthAdjust="spacing" textLength="128.6045" x="32.92" y="559.2651">RoomNumber : int</text><line style="stroke:#181818;stroke-width:1;" x1="13.92" x2="201.5997" y1="566.5669" y2="566.5669"/><text fill="#000000" font-family="sans-serif" font-size="14" lengthAdjust="spacing" textLength="177.6797" x="18.92" y="583.562">RoomName : varchar(20)</text><text fill="#000000" font-family="sans-serif" font-size="14" lengthAdjust="spacing" textLength="176.292" x="18.92" y="599.8589">RoomPrefix : varchar(10)</text><text fill="#000000" font-family="sans-serif" font-size="14" lengthAdjust="spacing" textLength="176.1689" x="18.92" y="616.1557">RoomSuffix : varchar(10)</text></g><!--class Subject--><g class="entity" data-entity="Subject" data-source-line="10" data-uid="ent0003" id="entity_Subject"><rect fill="#F1F1F1" height="80.5938" rx="2.5" ry="2.5" style="stroke:#181818;stroke-width:0.5;" width="201.5195" x="7" y="220.93"/><ellipse cx="77.3418" cy="236.93" fill="#ADD1B2" rx="11" ry="11" style="stroke:#181818;stroke-width:1;"/><path d="M81.4512,242.93 L73.7324,242.93 L73.7324,230.5394 L81.4512,230.5394 L81.4512,232.6956 L76.1855,232.6956 L76.1855,235.3675 L80.9512,235.3675 L80.9512,237.5237 L76.1855,237.5237 L76.1855,240.7737 L81.4512,240.7737 L81.4512,242.93 Z " fill="#000000"/><text fill="#000000" font-family="sans-serif" font-size="14" lengthAdjust="spacing" textLength="52.3359" x="97.8418" y="241.7767">Subject</text><line style="stroke:#181818;stroke-width:0.5;" x1="8" x2="207.5195" y1="252.93" y2="252.93"/><ellipse cx="18" cy="266.5784" fill="#000000" rx="3" ry="3" style="stroke:#000000;stroke-width:1;"/><text fill="#000000" font-family="sans-serif" font-size="14" lengthAdjust="spacing" textLength="99.1143" x="27" y="269.9251">SubjectID : int</text><line style="stroke:#181818;stroke-width:1;" x1="8" x2="207.5195" y1="277.2269" y2="277.2269"/><text fill="#000000" font-family="sans-serif" font-size="14" lengthAdjust="spacing" textLength="189.5195" x="13" y="294.222">SubjectName : varchar(20)</text></g><!--class ClassSubject--><g class="entity" data-entity="ClassSubject" data-source-line="16" data-uid="ent0004" id="entity_ClassSubject"><rect fill="#F1F1F1" height="145.7813" rx="2.5" ry="2.5" style="stroke:#181818;stroke-width:0.5;" width="210.9395" x="121.29" y="7"/><ellipse cx="177.9257" cy="23" fill="#ADD1B2" rx="11" ry="11" style="stroke:#181818;stroke-width:1;"/><path d="M182.0351,29 L174.3164,29 L174.3164,16.6094 L182.0351,16.6094 L182.0351,18.7656 L176.7695,18.7656 L176.7695,21.4375 L181.5351,21.4375 L181.5351,23.5938 L176.7695,23.5938 L176.7695,26.8438 L182.0351,26.8438 L182.0351,29 Z " fill="#000000"/><text fill="#000000" font-family="sans-serif" font-size="14" lengthAdjust="spacing" textLength="89.168" x="198.4257" y="27.8467">ClassSubject</text><line style="stroke:#181818;stroke-width:0.5;" x1="122.29" x2="331.2295" y1="39" y2="39"/><ellipse cx="132.29" cy="52.6484" fill="#000000" rx="3" ry="3" style="stroke:#000000;stroke-width:1;"/><text fill="#000000" font-family="sans-serif" font-size="14" lengthAdjust="spacing" textLength="135.9463" x="141.29" y="55.9951">ClassSubjectID : int</text><line style="stroke:#181818;stroke-width:1;" x1="122.29" x2="331.2295" y1="63.2969" y2="63.2969"/><text fill="#000000" font-family="sans-serif" font-size="14" lengthAdjust="spacing" text-decoration="underline" textLength="152.5645" x="127.29" y="80.292">Teacher : varchar(20)</text><text fill="#000000" font-family="sans-serif" font-size="14" lengthAdjust="spacing" text-decoration="underline" textLength="148.2168" x="127.29" y="96.5889">Subject : varchar(20)</text><text fill="#000000" font-family="sans-serif" font-size="14" lengthAdjust="spacing" textLength="124.2363" x="127.29" y="112.8857">WeeklyHours : int</text><text fill="#000000" font-family="sans-serif" font-size="14" lengthAdjust="spacing" textLength="198.9395" x="127.29" y="129.1826">RequiresDoublePeriod : bool</text><text fill="#000000" font-family="sans-serif" font-size="14" lengthAdjust="spacing" textLength="192.2744" x="127.29" y="145.4795">IsBetterDoublePeriod : bool</text></g><!--class Teacher--><g class="entity" data-entity="Teacher" data-source-line="26" data-uid="ent0005" id="entity_Teacher"><rect fill="#F1F1F1" height="96.8906" rx="2.5" ry="2.5" style="stroke:#181818;stroke-width:0.5;" width="205.8672" x="243.83" y="212.78"/><ellipse cx="314.1718" cy="228.78" fill="#ADD1B2" rx="11" ry="11" style="stroke:#181818;stroke-width:1;"/><path d="M318.2812,234.78 L310.5624,234.78 L310.5624,222.3894 L318.2812,222.3894 L318.2812,224.5456 L313.0155,224.5456 L313.0155,227.2175 L317.7812,227.2175 L317.7812,229.3737 L313.0155,229.3737 L313.0155,232.6237 L318.2812,232.6237 L318.2812,234.78 Z " fill="#000000"/><text fill="#000000" font-family="sans-serif" font-size="14" lengthAdjust="spacing" textLength="56.6836" x="334.6718" y="233.6267">Teacher</text><line style="stroke:#181818;stroke-width:0.5;" x1="244.83" x2="448.6972" y1="244.78" y2="244.78"/><ellipse cx="254.83" cy="258.4284" fill="#000000" rx="3" ry="3" style="stroke:#000000;stroke-width:1;"/><text fill="#000000" font-family="sans-serif" font-size="14" lengthAdjust="spacing" textLength="103.4619" x="263.83" y="261.7751">TeacherID : int</text><line style="stroke:#181818;stroke-width:1;" x1="244.83" x2="448.6972" y1="269.0769" y2="269.0769"/><text fill="#000000" font-family="sans-serif" font-size="14" lengthAdjust="spacing" textLength="193.8672" x="249.83" y="286.072">TeacherName : varchar(20)</text><text fill="#000000" font-family="sans-serif" font-size="14" lengthAdjust="spacing" textLength="189.335" x="249.83" y="302.3689">NameSymbol : varchar(10)</text></g><!--class RoomTypes--><g class="entity" data-entity="RoomTypes" data-source-line="33" data-uid="ent0006" id="entity_RoomTypes"><rect fill="#F1F1F1" height="80.5938" rx="2.5" ry="2.5" style="stroke:#181818;stroke-width:0.5;" width="182.7139" x="367.4" y="39.6"/><ellipse cx="413.4435" cy="55.6" fill="#ADD1B2" rx="11" ry="11" style="stroke:#181818;stroke-width:1;"/><path d="M417.5528,61.6 L409.8341,61.6 L409.8341,49.2094 L417.5528,49.2094 L417.5528,51.3656 L412.2872,51.3656 L412.2872,54.0375 L417.0528,54.0375 L417.0528,56.1937 L412.2872,56.1937 L412.2872,59.4437 L417.5528,59.4437 L417.5528,61.6 Z " fill="#000000"/><text fill="#000000" font-family="sans-serif" font-size="14" lengthAdjust="spacing" textLength="82.127" x="433.9435" y="60.4467">RoomTypes</text><line style="stroke:#181818;stroke-width:0.5;" x1="368.4" x2="549.1139" y1="71.6" y2="71.6"/><ellipse cx="378.4" cy="85.2484" fill="#000000" rx="3" ry="3" style="stroke:#000000;stroke-width:1;"/><text fill="#000000" font-family="sans-serif" font-size="14" lengthAdjust="spacing" textLength="89.7422" x="387.4" y="88.5951">RoomTypeID</text><line style="stroke:#181818;stroke-width:1;" x1="368.4" x2="549.1139" y1="95.8969" y2="95.8969"/><text fill="#000000" font-family="sans-serif" font-size="14" lengthAdjust="spacing" textLength="170.7139" x="373.4" y="112.892">RoomType : varchar(10)</text></g><!--class RequiredRoomTypes--><g class="entity" data-entity="RequiredRoomTypes" data-source-line="39" data-uid="ent0007" id="entity_RequiredRoomTypes"><rect fill="#F1F1F1" height="80.5938" rx="2.5" ry="2.5" style="stroke:#181818;stroke-width:0.5;" width="182.7139" x="16.4" y="369.67"/><ellipse cx="33.8034" cy="385.67" fill="#ADD1B2" rx="11" ry="11" style="stroke:#181818;stroke-width:1;"/><path d="M37.9127,391.67 L30.194,391.67 L30.194,379.2794 L37.9127,379.2794 L37.9127,381.4356 L32.6471,381.4356 L32.6471,384.1075 L37.4127,384.1075 L37.4127,386.2637 L32.6471,386.2637 L32.6471,389.5137 L37.9127,389.5137 L37.9127,391.67 Z " fill="#000000"/><text fill="#000000" font-family="sans-serif" font-size="14" lengthAdjust="spacing" textLength="145.373" x="48.3375" y="390.5167">RequiredRoomTypes</text><line style="stroke:#181818;stroke-width:0.5;" x1="17.4" x2="198.1139" y1="401.67" y2="401.67"/><text fill="#000000" font-family="sans-serif" font-size="14" lengthAdjust="spacing" text-decoration="underline" textLength="99.1143" x="22.4" y="418.6651">SubjectID : int</text><line style="stroke:#181818;stroke-width:1;" x1="17.4" x2="198.1139" y1="425.9669" y2="425.9669"/><text fill="#000000" font-family="sans-serif" font-size="14" lengthAdjust="spacing" textLength="170.7139" x="22.4" y="442.962">RoomType : varchar(10)</text></g><!--class Room_RoomTypes--><g class="entity" data-entity="Room_RoomTypes" data-source-line="45" data-uid="ent0008" id="entity_Room_RoomTypes"><rect fill="#F1F1F1" height="80.5938" rx="2.5" ry="2.5" style="stroke:#181818;stroke-width:0.5;" width="182.7139" x="16.4" y="683.46"/><ellipse cx="40.8909" cy="699.46" fill="#ADD1B2" rx="11" ry="11" style="stroke:#181818;stroke-width:1;"/><path d="M45.0002,705.46 L37.2815,705.46 L37.2815,693.0694 L45.0002,693.0694 L45.0002,695.2256 L39.7346,695.2256 L39.7346,697.8975 L44.5002,697.8975 L44.5002,700.0537 L39.7346,700.0537 L39.7346,703.3037 L45.0002,703.3037 L45.0002,705.46 Z " fill="#000000"/><text fill="#000000" font-family="sans-serif" font-size="14" lengthAdjust="spacing" textLength="129.623" x="57" y="704.3067">Room_RoomTypes</text><line style="stroke:#181818;stroke-width:0.5;" x1="17.4" x2="198.1139" y1="715.46" y2="715.46"/><text fill="#000000" font-family="sans-serif" font-size="14" lengthAdjust="spacing" text-decoration="underline" textLength="128.6045" x="22.4" y="732.4551">RoomNumber : int</text><line style="stroke:#181818;stroke-width:1;" x1="17.4" x2="198.1139" y1="739.7569" y2="739.7569"/><text fill="#000000" font-family="sans-serif" font-size="14" lengthAdjust="spacing" textLength="170.7139" x="22.4" y="756.752">RoomType : varchar(10)</text></g><!--reverse link ClassSubject to Subject--><g class="link" data-entity-1="ClassSubject" data-entity-2="Subject" data-source-line="51" data-uid="lnk9" id="link_ClassSubject_Subject"><path codeLine="51" d="M174.4484,159.7271 C159.1484,182.7971 147.19,200.8 134.02,220.65" fill="none" id="ClassSubject-backto-Subject" style="stroke:#181818;stroke-width:1;"/><line style="stroke:#181818;stroke-width:1;" x1="173.3257" x2="179.9927" y1="154.1827" y2="158.6043"/><line style="stroke:#181818;stroke-width:1;" x1="171.6676" x2="178.3346" y1="156.6829" y2="161.1045"/><line style="stroke:#181818;stroke-width:1;" x1="174.4484" x2="178.87" y1="159.7271" y2="153.06"/></g><!--reverse link ClassSubject to Teacher--><g class="link" data-entity-1="ClassSubject" data-entity-2="Teacher" data-source-line="52" data-uid="lnk10" id="link_ClassSubject_Teacher"><path codeLine="52" d="M279.4991,159.7087 C292.8491,179.6587 302.56,194.17 314.73,212.37" fill="none" id="ClassSubject-backto-Teacher" style="stroke:#181818;stroke-width:1;"/><line style="stroke:#181818;stroke-width:1;" x1="273.9502" x2="280.5989" y1="158.6089" y2="154.1598"/><line style="stroke:#181818;stroke-width:1;" x1="275.6186" x2="282.2673" y1="161.1022" y2="156.653"/><line style="stroke:#181818;stroke-width:1;" x1="279.4991" x2="275.05" y1="159.7087" y2="153.06"/></g><!--reverse link Room to Room_RoomTypes--><g class="link" data-entity-1="Room" data-entity-2="Room_RoomTypes" data-source-line="54" data-uid="lnk11" id="link_Room_Room_RoomTypes"><path codeLine="54" d="M107.76,641.78 C107.76,661.54 107.76,665.33 107.76,683.42" fill="none" id="Room-backto-Room_RoomTypes" style="stroke:#181818;stroke-width:1;"/><line style="stroke:#181818;stroke-width:1;" x1="107.76" x2="101.76" y1="631.78" y2="623.78"/><line style="stroke:#181818;stroke-width:1;" x1="107.76" x2="113.76" y1="631.78" y2="623.78"/><line style="stroke:#181818;stroke-width:1;" x1="107.76" x2="107.76" y1="631.78" y2="623.78"/><ellipse cx="107.76" cy="637.78" fill="none" rx="4" ry="4" style="stroke:#181818;stroke-width:1;"/></g><!--reverse link Subject to RequiredRoomTypes--><g class="link" data-entity-1="Subject" data-entity-2="RequiredRoomTypes" data-source-line="56" data-uid="lnk12" id="link_Subject_RequiredRoomTypes"><path codeLine="56" d="M107.76,319.94 C107.76,340.82 107.76,348.34 107.76,369.23" fill="none" id="Subject-backto-RequiredRoomTypes" style="stroke:#181818;stroke-width:1;"/><line style="stroke:#181818;stroke-width:1;" x1="107.76" x2="101.76" y1="309.94" y2="301.94"/><line style="stroke:#181818;stroke-width:1;" x1="107.76" x2="113.76" y1="309.94" y2="301.94"/><line style="stroke:#181818;stroke-width:1;" x1="107.76" x2="107.76" y1="309.94" y2="301.94"/><ellipse cx="107.76" cy="315.94" fill="none" rx="4" ry="4" style="stroke:#181818;stroke-width:1;"/></g><!--reverse link RequiredRoomTypes to Room--><g class="link" data-entity-1="RequiredRoomTypes" data-entity-2="Room" data-source-line="57" data-uid="lnk13" id="link_RequiredRoomTypes_Room"><path codeLine="57" d="M107.76,468.46 C107.76,486.47 107.76,490.13 107.76,509.79" fill="none" id="RequiredRoomTypes-backto-Room" style="stroke:#181818;stroke-width:1;"/><line style="stroke:#181818;stroke-width:1;" x1="107.76" x2="101.76" y1="458.46" y2="450.46"/><line style="stroke:#181818;stroke-width:1;" x1="107.76" x2="113.76" y1="458.46" y2="450.46"/><line style="stroke:#181818;stroke-width:1;" x1="107.76" x2="107.76" y1="458.46" y2="450.46"/><ellipse cx="107.76" cy="464.46" fill="none" rx="4" ry="4" style="stroke:#181818;stroke-width:1;"/></g><!--SRC=[ZPBBJiCm44Nt_Wel0IaIi4I81MH1DgXgAh54TZfLNP8Q_414jF-EuqTYkwdKJPIvTtJcuO6zOgh7Iyux_8Smlh6_RxgZ8F03PdjbnA8m7wkJ3epwGqIp9UBg_lRQ6mi16_ORMNUZLUlDgNL425pbMjCTDCeLzq5LfgL3qapv2VJI4YaJMgpao4Vzj0BIREsK4H0xBt3oMTy1Fjl-bMiXHzuIlZKJ84kkQGiB48olZKavRmTQ9Pz1AH2pzjH-wCPsxeEyQI_Fli8Wrdr73VNSgeVNMFLV85sH45Pb_CI3SfxWHbsdf6bVISEN4Kt2HuJp-y-F45z0J0xWS2YAS3OpZjyaGlRmZzn8QIS8XNndveEZqrMC5FGF]--></g></svg>