<svg xmlns="http://www.w3.org/2000/svg" xmlns:xlink="http://www.w3.org/1999/xlink" contentStyleType="text/css" data-diagram-type="CLASS" height="776px" preserveAspectRatio="none" style="width:2626px;height:776px;background:#FFFFFF;" version="1.1" viewBox="0 0 2626 776" width="2626px" zoomAndPan="magnify"><defs/><g><!--cluster Enums--><g class="cluster" data-entity="Enums" data-source-line="4" data-uid="ent0002" id="cluster_Enums"><path d="M2476.1,120 L2529.518,120 A3.75,3.75 0 0 1 2532.018,122.5 L2539.018,142.2969 L2617.22,142.2969 A2.5,2.5 0 0 1 2619.72,144.7969 L2619.72,479.5 A2.5,2.5 0 0 1 2617.22,482 L2476.1,482 A2.5,2.5 0 0 1 2473.6,479.5 L2473.6,122.5 A2.5,2.5 0 0 1 2476.1,120" fill="none" style="stroke:#000000;stroke-width:1.5;"/><line style="stroke:#000000;stroke-width:1.5;" x1="2473.6" x2="2539.018" y1="142.2969" y2="142.2969"/><text fill="#000000" font-family="sans-serif" font-size="14" font-weight="bold" lengthAdjust="spacing" textLength="52.418" x="2477.6" y="134.9951">Enums</text></g><!--cluster Data--><g class="cluster" data-entity="Data" data-source-line="23" data-uid="ent0005" id="cluster_Data"><path d="M1628.82,145 L1667.028,145 A3.75,3.75 0 0 1 1669.528,147.5 L1676.528,167.2969 L2439.1,167.2969 A2.5,2.5 0 0 1 2441.6,169.7969 L2441.6,620.5 A2.5,2.5 0 0 1 2439.1,623 L1628.82,623 A2.5,2.5 0 0 1 1626.32,620.5 L1626.32,147.5 A2.5,2.5 0 0 1 1628.82,145" fill="none" style="stroke:#000000;stroke-width:1.5;"/><line style="stroke:#000000;stroke-width:1.5;" x1="1626.32" x2="1676.528" y1="167.2969" y2="167.2969"/><text fill="#000000" font-family="sans-serif" font-size="14" font-weight="bold" lengthAdjust="spacing" textLength="37.208" x="1630.32" y="159.9951">Data</text></g><!--cluster ClassSubject--><g class="cluster" data-entity="ClassSubject" data-source-line="58" data-uid="ent0010" id="cluster_ClassSubject"><path d="M733.68,6 L835.223,6 A3.75,3.75 0 0 1 837.723,8.5 L844.723,28.2969 L1380.45,28.2969 A2.5,2.5 0 0 1 1382.95,30.7969 L1382.95,364.5 A2.5,2.5 0 0 1 1380.45,367 L733.68,367 A2.5,2.5 0 0 1 731.18,364.5 L731.18,8.5 A2.5,2.5 0 0 1 733.68,6" fill="none" style="stroke:#000000;stroke-width:1.5;"/><line style="stroke:#000000;stroke-width:1.5;" x1="731.18" x2="844.723" y1="28.2969" y2="28.2969"/><text fill="#000000" font-family="sans-serif" font-size="14" font-weight="bold" lengthAdjust="spacing" textLength="100.543" x="735.18" y="20.9951">ClassSubject</text></g><!--cluster TimeTable--><g class="cluster" data-entity="TimeTable" data-source-line="77" data-uid="ent0013" id="cluster_TimeTable"><path d="M751.52,442 L834.2641,442 A3.75,3.75 0 0 1 836.7641,444.5 L843.7641,464.2969 L1591.82,464.2969 A2.5,2.5 0 0 1 1594.32,466.7969 L1594.32,766.5 A2.5,2.5 0 0 1 1591.82,769 L751.52,769 A2.5,2.5 0 0 1 749.02,766.5 L749.02,444.5 A2.5,2.5 0 0 1 751.52,442" fill="none" style="stroke:#000000;stroke-width:1.5;"/><line style="stroke:#000000;stroke-width:1.5;" x1="749.02" x2="843.7641" y1="464.2969" y2="464.2969"/><text fill="#000000" font-family="sans-serif" font-size="14" font-weight="bold" lengthAdjust="spacing" textLength="81.7441" x="753.02" y="456.9951">TimeTable</text></g><!--cluster algorithm--><g class="cluster" data-entity="algorithm" data-source-line="106" data-uid="ent0016" id="cluster_algorithm"><path d="M8.5,438 L86.3359,438 A3.75,3.75 0 0 1 88.8359,440.5 L95.8359,460.2969 L696.68,460.2969 A2.5,2.5 0 0 1 699.18,462.7969 L699.18,746.5 A2.5,2.5 0 0 1 696.68,749 L8.5,749 A2.5,2.5 0 0 1 6,746.5 L6,440.5 A2.5,2.5 0 0 1 8.5,438" fill="none" style="stroke:#000000;stroke-width:1.5;"/><line style="stroke:#000000;stroke-width:1.5;" x1="6" x2="95.8359" y1="460.2969" y2="460.2969"/><text fill="#000000" font-family="sans-serif" font-size="14" font-weight="bold" lengthAdjust="spacing" textLength="76.8359" x="10" y="452.9951">algorithm</text></g><!--class RoomTypes--><g class="entity" data-entity="RoomTypes" data-source-line="5" data-uid="ent0003" id="entity_RoomTypes"><rect fill="#F1F1F1" height="129.4844" rx="2.5" ry="2.5" style="stroke:#181818;stroke-width:0.5;" width="114.127" x="2489.6" y="336.26"/><ellipse cx="2504.6" cy="352.26" fill="#EB937F" rx="11" ry="11" style="stroke:#181818;stroke-width:1;"/><path d="M2508.7094,358.26 L2500.9906,358.26 L2500.9906,345.8694 L2508.7094,345.8694 L2508.7094,348.0256 L2503.4438,348.0256 L2503.4438,350.6975 L2508.2094,350.6975 L2508.2094,352.8538 L2503.4438,352.8538 L2503.4438,356.1038 L2508.7094,356.1038 L2508.7094,358.26 Z " fill="#000000"/><text fill="#000000" font-family="sans-serif" font-size="14" lengthAdjust="spacing" textLength="82.127" x="2518.6" y="357.1067">RoomTypes</text><line style="stroke:#181818;stroke-width:0.5;" x1="2490.6" x2="2602.727" y1="368.26" y2="368.26"/><text fill="#000000" font-family="sans-serif" font-size="14" lengthAdjust="spacing" textLength="29.2031" x="2495.6" y="385.2551">EDV</text><text fill="#000000" font-family="sans-serif" font-size="14" lengthAdjust="spacing" textLength="41.2275" x="2495.6" y="401.552">CHEM</text><text fill="#000000" font-family="sans-serif" font-size="14" lengthAdjust="spacing" textLength="27.5215" x="2495.6" y="417.8489">PHY</text><text fill="#000000" font-family="sans-serif" font-size="14" lengthAdjust="spacing" textLength="46.6279" x="2495.6" y="434.1457">SPORT</text><text fill="#000000" font-family="sans-serif" font-size="14" lengthAdjust="spacing" textLength="82.6465" x="2495.6" y="450.4426">WORKSHOP</text><line style="stroke:#181818;stroke-width:0.5;" x1="2490.6" x2="2602.727" y1="457.7444" y2="457.7444"/></g><!--class SchoolDays--><g class="entity" data-entity="SchoolDays" data-source-line="13" data-uid="ent0004" id="entity_SchoolDays"><rect fill="#F1F1F1" height="145.7813" rx="2.5" ry="2.5" style="stroke:#181818;stroke-width:0.5;" width="113.416" x="2489.95" y="155.11"/><ellipse cx="2504.95" cy="171.11" fill="#EB937F" rx="11" ry="11" style="stroke:#181818;stroke-width:1;"/><path d="M2509.0594,177.11 L2501.3406,177.11 L2501.3406,164.7194 L2509.0594,164.7194 L2509.0594,166.8756 L2503.7938,166.8756 L2503.7938,169.5475 L2508.5594,169.5475 L2508.5594,171.7038 L2503.7938,171.7038 L2503.7938,174.9538 L2509.0594,174.9538 L2509.0594,177.11 Z " fill="#000000"/><text fill="#000000" font-family="sans-serif" font-size="14" lengthAdjust="spacing" textLength="81.416" x="2518.95" y="175.9567">SchoolDays</text><line style="stroke:#181818;stroke-width:0.5;" x1="2490.95" x2="2602.366" y1="187.11" y2="187.11"/><text fill="#000000" font-family="sans-serif" font-size="14" lengthAdjust="spacing" textLength="62.4805" x="2495.95" y="204.1051">MONDAY</text><text fill="#000000" font-family="sans-serif" font-size="14" lengthAdjust="spacing" textLength="65.4404" x="2495.95" y="220.402">TUESDAY</text><text fill="#000000" font-family="sans-serif" font-size="14" lengthAdjust="spacing" textLength="90.583" x="2495.95" y="236.6989">WEDNESDAY</text><text fill="#000000" font-family="sans-serif" font-size="14" lengthAdjust="spacing" textLength="76.8496" x="2495.95" y="252.9957">THURSDAY</text><text fill="#000000" font-family="sans-serif" font-size="14" lengthAdjust="spacing" textLength="50.8184" x="2495.95" y="269.2926">FRIDAY</text><text fill="#000000" font-family="sans-serif" font-size="14" lengthAdjust="spacing" textLength="75.8994" x="2495.95" y="285.5895">SATURDAY</text><line style="stroke:#181818;stroke-width:0.5;" x1="2490.95" x2="2602.366" y1="292.8913" y2="292.8913"/></g><!--class Teacher--><g class="entity" data-entity="Teacher" data-source-line="24" data-uid="ent0006" id="entity_Teacher"><rect fill="#F1F1F1" height="227.2656" rx="2.5" ry="2.5" style="stroke:#181818;stroke-width:0.5;" width="440.4971" x="1650.32" y="188.37"/><ellipse cx="1837.9767" cy="204.37" fill="#ADD1B2" rx="11" ry="11" style="stroke:#181818;stroke-width:1;"/><path d="M1840.9455,210.0106 Q1840.3674,210.3075 1839.7267,210.4481 Q1839.0861,210.6044 1838.383,210.6044 Q1835.883,210.6044 1834.5549,208.9638 Q1833.2424,207.3075 1833.2424,204.1825 Q1833.2424,201.0575 1834.5549,199.4013 Q1835.883,197.745 1838.383,197.745 Q1839.0861,197.745 1839.7267,197.9013 Q1840.383,198.0575 1840.9455,198.3544 L1840.9455,201.0731 Q1840.3205,200.495 1839.7267,200.2294 Q1839.133,199.9481 1838.508,199.9481 Q1837.1642,199.9481 1836.4767,201.0263 Q1835.7892,202.0888 1835.7892,204.1825 Q1835.7892,206.2763 1836.4767,207.3544 Q1837.1642,208.4169 1838.508,208.4169 Q1839.133,208.4169 1839.7267,208.1513 Q1840.3205,207.87 1840.9455,207.2919 L1840.9455,210.0106 Z " fill="#000000"/><text fill="#000000" font-family="sans-serif" font-size="14" lengthAdjust="spacing" textLength="56.6836" x="1858.4767" y="209.2167">Teacher</text><line style="stroke:#181818;stroke-width:0.5;" x1="1651.32" x2="2089.8171" y1="220.37" y2="220.37"/><rect fill="none" height="6" style="stroke:#C82930;stroke-width:1;" width="6" x="1658.32" y="231.0184"/><text fill="#000000" font-family="sans-serif" font-size="14" lengthAdjust="spacing" textLength="150.3223" x="1670.32" y="237.3651">teacherName : String</text><rect fill="none" height="6" style="stroke:#C82930;stroke-width:1;" width="6" x="1658.32" y="247.3153"/><text fill="#000000" font-family="sans-serif" font-size="14" lengthAdjust="spacing" textLength="147.2529" x="1670.32" y="253.662">nameSymbol : String</text><rect fill="none" height="6" style="stroke:#C82930;stroke-width:1;" width="6" x="1658.32" y="263.6122"/><text fill="#000000" font-family="sans-serif" font-size="14" lengthAdjust="spacing" textLength="234.7666" x="1670.32" y="269.9589">takenPeriods : ArrayList&lt;Period&gt;</text><rect fill="none" height="6" style="stroke:#C82930;stroke-width:1;" width="6" x="1658.32" y="279.9091"/><text fill="#000000" font-family="sans-serif" font-size="14" lengthAdjust="spacing" textLength="265.0771" x="1670.32" y="286.2557">teachingSubject : ArrayList&lt;Subject&gt;</text><line style="stroke:#181818;stroke-width:0.5;" x1="1651.32" x2="2089.8171" y1="293.5575" y2="293.5575"/><ellipse cx="1661.32" cy="307.2059" fill="#84BE84" rx="3" ry="3" style="stroke:#038048;stroke-width:1;"/><text fill="#000000" font-family="sans-serif" font-size="14" lengthAdjust="spacing" textLength="187.2979" x="1670.32" y="310.5526">getTeacherName() : String</text><ellipse cx="1661.32" cy="323.5028" fill="#84BE84" rx="3" ry="3" style="stroke:#038048;stroke-width:1;"/><text fill="#000000" font-family="sans-serif" font-size="14" lengthAdjust="spacing" textLength="182.7656" x="1670.32" y="326.8495">getNameSymbol() : String</text><ellipse cx="1661.32" cy="339.7997" fill="#84BE84" rx="3" ry="3" style="stroke:#038048;stroke-width:1;"/><text fill="#000000" font-family="sans-serif" font-size="14" lengthAdjust="spacing" textLength="271.7422" x="1670.32" y="343.1464">getTakenPeriods() : ArrayList&lt;Period&gt;</text><ellipse cx="1661.32" cy="356.0966" fill="#84BE84" rx="3" ry="3" style="stroke:#038048;stroke-width:1;"/><text fill="#000000" font-family="sans-serif" font-size="14" lengthAdjust="spacing" textLength="302.0527" x="1670.32" y="359.4432">getTeachingSubject() : ArrayList&lt;Subject&gt;</text><text fill="#000000" font-family="sans-serif" font-size="14" lengthAdjust="spacing" textLength="4.4502" x="1670.32" y="375.7401">&#160;</text><ellipse cx="1661.32" cy="388.6903" fill="#84BE84" rx="3" ry="3" style="stroke:#038048;stroke-width:1;"/><text fill="#000000" font-family="sans-serif" font-size="14" lengthAdjust="spacing" textLength="414.4971" x="1670.32" y="392.037">checkIfTeacherTeachesSubject(subject : Subject) : boolean</text><ellipse cx="1661.32" cy="404.9872" fill="#84BE84" rx="3" ry="3" style="stroke:#038048;stroke-width:1;"/><text fill="#000000" font-family="sans-serif" font-size="14" lengthAdjust="spacing" textLength="410.9561" x="1670.32" y="408.3339">checkIfTeacherAvailableInPeriod(period : Period) : boolean</text></g><!--class Subject--><g class="entity" data-entity="Subject" data-source-line="39" data-uid="ent0007" id="entity_Subject"><rect fill="#F1F1F1" height="80.5938" rx="2.5" ry="2.5" style="stroke:#181818;stroke-width:0.5;" width="266.7754" x="2150.82" y="303.7"/><ellipse cx="2253.7897" cy="319.7" fill="#ADD1B2" rx="11" ry="11" style="stroke:#181818;stroke-width:1;"/><path d="M2256.7585,325.3406 Q2256.1804,325.6375 2255.5397,325.7781 Q2254.8991,325.9344 2254.196,325.9344 Q2251.696,325.9344 2250.3679,324.2938 Q2249.0554,322.6375 2249.0554,319.5125 Q2249.0554,316.3875 2250.3679,314.7313 Q2251.696,313.075 2254.196,313.075 Q2254.8991,313.075 2255.5397,313.2313 Q2256.196,313.3875 2256.7585,313.6844 L2256.7585,316.4031 Q2256.1335,315.825 2255.5397,315.5594 Q2254.946,315.2781 2254.321,315.2781 Q2252.9772,315.2781 2252.2897,316.3563 Q2251.6022,317.4188 2251.6022,319.5125 Q2251.6022,321.6063 2252.2897,322.6844 Q2252.9772,323.7469 2254.321,323.7469 Q2254.946,323.7469 2255.5397,323.4813 Q2256.1335,323.2 2256.7585,322.6219 L2256.7585,325.3406 Z " fill="#000000"/><text fill="#000000" font-family="sans-serif" font-size="14" lengthAdjust="spacing" textLength="52.3359" x="2274.2897" y="324.5467">Subject</text><line style="stroke:#181818;stroke-width:0.5;" x1="2151.82" x2="2416.5954" y1="335.7" y2="335.7"/><rect fill="none" height="6" style="stroke:#C82930;stroke-width:1;" width="6" x="2158.82" y="346.3484"/><text fill="#000000" font-family="sans-serif" font-size="14" lengthAdjust="spacing" textLength="147.4443" x="2170.82" y="352.6951">subjectName : String</text><rect fill="none" height="6" style="stroke:#C82930;stroke-width:1;" width="6" x="2158.82" y="362.6453"/><text fill="#000000" font-family="sans-serif" font-size="14" lengthAdjust="spacing" textLength="240.7754" x="2170.82" y="368.992">requiredRoomType : RoomTypes[]</text><line style="stroke:#181818;stroke-width:0.5;" x1="2151.82" x2="2416.5954" y1="376.2938" y2="376.2938"/></g><!--class Room--><g class="entity" data-entity="Room" data-source-line="44" data-uid="ent0008" id="entity_Room"><rect fill="#F1F1F1" height="129.4844" rx="2.5" ry="2.5" style="stroke:#181818;stroke-width:0.5;" width="210.8232" x="1765.16" y="450.26"/><ellipse cx="1846.0736" cy="466.26" fill="#ADD1B2" rx="11" ry="11" style="stroke:#181818;stroke-width:1;"/><path d="M1849.0423,471.9006 Q1848.4642,472.1975 1847.8236,472.3381 Q1847.1829,472.4944 1846.4798,472.4944 Q1843.9798,472.4944 1842.6517,470.8538 Q1841.3392,469.1975 1841.3392,466.0725 Q1841.3392,462.9475 1842.6517,461.2913 Q1843.9798,459.635 1846.4798,459.635 Q1847.1829,459.635 1847.8236,459.7913 Q1848.4798,459.9475 1849.0423,460.2444 L1849.0423,462.9631 Q1848.4173,462.385 1847.8236,462.1194 Q1847.2298,461.8381 1846.6048,461.8381 Q1845.2611,461.8381 1844.5736,462.9163 Q1843.8861,463.9788 1843.8861,466.0725 Q1843.8861,468.1663 1844.5736,469.2444 Q1845.2611,470.3069 1846.6048,470.3069 Q1847.2298,470.3069 1847.8236,470.0413 Q1848.4173,469.76 1849.0423,469.1819 L1849.0423,471.9006 Z " fill="#000000"/><text fill="#000000" font-family="sans-serif" font-size="14" lengthAdjust="spacing" textLength="40.4961" x="1866.5736" y="471.1067">Room</text><line style="stroke:#181818;stroke-width:0.5;" x1="1766.16" x2="1974.9832" y1="482.26" y2="482.26"/><rect fill="none" height="6" style="stroke:#C82930;stroke-width:1;" width="6" x="1773.16" y="492.9084"/><text fill="#000000" font-family="sans-serif" font-size="14" lengthAdjust="spacing" textLength="142.3584" x="1785.16" y="499.2551">roomNumber : short</text><rect fill="none" height="6" style="stroke:#C82930;stroke-width:1;" width="6" x="1773.16" y="509.2053"/><text fill="#000000" font-family="sans-serif" font-size="14" lengthAdjust="spacing" textLength="133.2256" x="1785.16" y="515.552">roomName : String</text><rect fill="none" height="6" style="stroke:#C82930;stroke-width:1;" width="6" x="1773.16" y="525.5022"/><text fill="#000000" font-family="sans-serif" font-size="14" lengthAdjust="spacing" textLength="131.8379" x="1785.16" y="531.8489">roomPrefix : String</text><rect fill="none" height="6" style="stroke:#C82930;stroke-width:1;" width="6" x="1773.16" y="541.7991"/><text fill="#000000" font-family="sans-serif" font-size="14" lengthAdjust="spacing" textLength="131.7148" x="1785.16" y="548.1457">roomSuffix : String</text><rect fill="none" height="6" style="stroke:#C82930;stroke-width:1;" width="6" x="1773.16" y="558.0959"/><text fill="#000000" font-family="sans-serif" font-size="14" lengthAdjust="spacing" textLength="184.8232" x="1785.16" y="564.4426">roomTypes : RoomTypes[]</text><line style="stroke:#181818;stroke-width:0.5;" x1="1766.16" x2="1974.9832" y1="571.7444" y2="571.7444"/></g><!--class Period--><g class="entity" data-entity="Period" data-source-line="52" data-uid="ent0009" id="entity_Period"><rect fill="#F1F1F1" height="80.5938" rx="2.5" ry="2.5" style="stroke:#181818;stroke-width:0.5;" width="193.5625" x="2187.43" y="187.7"/><ellipse cx="2257.8846" cy="203.7" fill="#ADD1B2" rx="11" ry="11" style="stroke:#181818;stroke-width:1;"/><path d="M2260.8533,209.3406 Q2260.2752,209.6375 2259.6346,209.7781 Q2258.994,209.9344 2258.2908,209.9344 Q2255.7908,209.9344 2254.4627,208.2938 Q2253.1502,206.6375 2253.1502,203.5125 Q2253.1502,200.3875 2254.4627,198.7313 Q2255.7908,197.075 2258.2908,197.075 Q2258.994,197.075 2259.6346,197.2313 Q2260.2908,197.3875 2260.8533,197.6844 L2260.8533,200.4031 Q2260.2283,199.825 2259.6346,199.5594 Q2259.0408,199.2781 2258.4158,199.2781 Q2257.0721,199.2781 2256.3846,200.3563 Q2255.6971,201.4188 2255.6971,203.5125 Q2255.6971,205.6063 2256.3846,206.6844 Q2257.0721,207.7469 2258.4158,207.7469 Q2259.0408,207.7469 2259.6346,207.4813 Q2260.2283,207.2 2260.8533,206.6219 L2260.8533,209.3406 Z " fill="#000000"/><text fill="#000000" font-family="sans-serif" font-size="14" lengthAdjust="spacing" textLength="44.1533" x="2278.3846" y="208.5467">Period</text><line style="stroke:#181818;stroke-width:0.5;" x1="2188.43" x2="2379.9925" y1="219.7" y2="219.7"/><rect fill="none" height="6" style="stroke:#C82930;stroke-width:1;" width="6" x="2195.43" y="230.3484"/><text fill="#000000" font-family="sans-serif" font-size="14" lengthAdjust="spacing" textLength="167.5625" x="2207.43" y="236.6951">schoolDay : SchoolDays</text><rect fill="none" height="6" style="stroke:#C82930;stroke-width:1;" width="6" x="2195.43" y="246.6453"/><text fill="#000000" font-family="sans-serif" font-size="14" lengthAdjust="spacing" textLength="128.2012" x="2207.43" y="252.992">schoolHour : short</text><line style="stroke:#181818;stroke-width:0.5;" x1="2188.43" x2="2379.9925" y1="260.2938" y2="260.2938"/></g><!--class ClassSubject--><g class="entity" data-entity="ClassSubject" data-source-line="59" data-uid="ent0011" id="entity_ClassSubject"><rect fill="#F1F1F1" height="145.7813" rx="2.5" ry="2.5" style="stroke:#181818;stroke-width:0.5;" width="355.6836" x="755.18" y="197.11"/><ellipse cx="884.1878" cy="213.11" fill="#ADD1B2" rx="11" ry="11" style="stroke:#181818;stroke-width:1;"/><path d="M887.1566,218.7506 Q886.5784,219.0475 885.9378,219.1881 Q885.2972,219.3444 884.5941,219.3444 Q882.0941,219.3444 880.7659,217.7038 Q879.4534,216.0475 879.4534,212.9225 Q879.4534,209.7975 880.7659,208.1413 Q882.0941,206.485 884.5941,206.485 Q885.2972,206.485 885.9378,206.6413 Q886.5941,206.7975 887.1566,207.0944 L887.1566,209.8131 Q886.5316,209.235 885.9378,208.9694 Q885.3441,208.6881 884.7191,208.6881 Q883.3753,208.6881 882.6878,209.7663 Q882.0003,210.8288 882.0003,212.9225 Q882.0003,215.0163 882.6878,216.0944 Q883.3753,217.1569 884.7191,217.1569 Q885.3441,217.1569 885.9378,216.8913 Q886.5316,216.61 887.1566,216.0319 L887.1566,218.7506 Z " fill="#000000"/><text fill="#000000" font-family="sans-serif" font-size="14" lengthAdjust="spacing" textLength="89.168" x="904.6878" y="217.9567">ClassSubject</text><line style="stroke:#181818;stroke-width:0.5;" x1="756.18" x2="1109.8636" y1="229.11" y2="229.11"/><rect fill="none" height="6" style="stroke:#C82930;stroke-width:1;" width="6" x="763.18" y="239.7584"/><text fill="#000000" font-family="sans-serif" font-size="14" lengthAdjust="spacing" textLength="123.9219" x="775.18" y="246.1051">teacher : Teacher</text><rect fill="none" height="6" style="stroke:#C82930;stroke-width:1;" width="6" x="763.18" y="256.0553"/><text fill="#000000" font-family="sans-serif" font-size="14" lengthAdjust="spacing" textLength="116.6963" x="775.18" y="262.402">subject : Subject</text><rect fill="none" height="6" style="stroke:#C82930;stroke-width:1;" width="6" x="763.18" y="272.3522"/><text fill="#000000" font-family="sans-serif" font-size="14" lengthAdjust="spacing" textLength="139.5693" x="775.18" y="278.6989">weeklyHours : short</text><rect fill="none" height="6" style="stroke:#C82930;stroke-width:1;" width="6" x="763.18" y="288.6491"/><text fill="#000000" font-family="sans-serif" font-size="14" lengthAdjust="spacing" textLength="221.0332" x="775.18" y="294.9957">requiresDoublePeriod : boolean</text><rect fill="none" height="6" style="stroke:#C82930;stroke-width:1;" width="6" x="763.18" y="304.9459"/><text fill="#000000" font-family="sans-serif" font-size="14" lengthAdjust="spacing" textLength="218.1006" x="775.18" y="311.2926">isBetterDoublePeriod : boolean</text><line style="stroke:#181818;stroke-width:0.5;" x1="756.18" x2="1109.8636" y1="318.5944" y2="318.5944"/><ellipse cx="766.18" cy="332.2428" fill="#84BE84" rx="3" ry="3" style="stroke:#038048;stroke-width:1;"/><text fill="#000000" font-family="sans-serif" font-size="14" lengthAdjust="spacing" textLength="329.6836" x="775.18" y="335.5895">assignClassRoomIfNoSpecialRoomType() : void</text></g><!--class ClassSubjectInstance--><g class="entity" data-entity="ClassSubjectInstance" data-source-line="69" data-uid="ent0012" id="entity_ClassSubjectInstance"><rect fill="#F1F1F1" height="113.1875" rx="2.5" ry="2.5" style="stroke:#181818;stroke-width:0.5;" width="215.875" x="825.09" y="49.41"/><ellipse cx="855.9116" cy="65.41" fill="#ADD1B2" rx="11" ry="11" style="stroke:#181818;stroke-width:1;"/><path d="M858.8804,71.0506 Q858.3023,71.3475 857.6616,71.4881 Q857.021,71.6444 856.3179,71.6444 Q853.8179,71.6444 852.4898,70.0037 Q851.1773,68.3475 851.1773,65.2225 Q851.1773,62.0975 852.4898,60.4412 Q853.8179,58.785 856.3179,58.785 Q857.021,58.785 857.6616,58.9412 Q858.3179,59.0975 858.8804,59.3944 L858.8804,62.1131 Q858.2554,61.535 857.6616,61.2694 Q857.0679,60.9881 856.4429,60.9881 Q855.0991,60.9881 854.4116,62.0662 Q853.7241,63.1287 853.7241,65.2225 Q853.7241,67.3162 854.4116,68.3944 Q855.0991,69.4569 856.4429,69.4569 Q857.0679,69.4569 857.6616,69.1912 Q858.2554,68.91 858.8804,68.3319 L858.8804,71.0506 Z " fill="#000000"/><text fill="#000000" font-family="sans-serif" font-size="14" lengthAdjust="spacing" textLength="148.7158" x="873.4275" y="70.2567">ClassSubjectInstance</text><line style="stroke:#181818;stroke-width:0.5;" x1="826.09" x2="1039.965" y1="81.41" y2="81.41"/><rect fill="none" height="6" style="stroke:#C82930;stroke-width:1;" width="6" x="833.09" y="92.0584"/><text fill="#000000" font-family="sans-serif" font-size="14" lengthAdjust="spacing" textLength="189.875" x="845.09" y="98.4051">classSubject : ClassSubject</text><rect fill="none" height="6" style="stroke:#C82930;stroke-width:1;" width="6" x="833.09" y="108.3553"/><text fill="#000000" font-family="sans-serif" font-size="14" lengthAdjust="spacing" textLength="90.6377" x="845.09" y="114.702">room : Room</text><rect fill="none" height="6" style="stroke:#C82930;stroke-width:1;" width="6" x="833.09" y="124.6522"/><text fill="#000000" font-family="sans-serif" font-size="14" lengthAdjust="spacing" textLength="102.3682" x="845.09" y="130.9989">period : Period</text><rect fill="none" height="6" style="stroke:#C82930;stroke-width:1;" width="6" x="833.09" y="140.9491"/><text fill="#000000" font-family="sans-serif" font-size="14" lengthAdjust="spacing" textLength="123.9219" x="845.09" y="147.2957">teacher : Teacher</text><line style="stroke:#181818;stroke-width:0.5;" x1="826.09" x2="1039.965" y1="154.5975" y2="154.5975"/></g><!--class Timetable--><g class="entity" data-entity="Timetable" data-source-line="78" data-uid="ent0014" id="entity_Timetable"><rect fill="#F1F1F1" height="145.7813" rx="2.5" ry="2.5" style="stroke:#181818;stroke-width:0.5;" width="336.0098" x="765.02" y="575.11"/><ellipse cx="893.6997" cy="591.11" fill="#ADD1B2" rx="11" ry="11" style="stroke:#181818;stroke-width:1;"/><path d="M896.6684,596.7506 Q896.0903,597.0475 895.4497,597.1881 Q894.8091,597.3444 894.1059,597.3444 Q891.6059,597.3444 890.2778,595.7038 Q888.9653,594.0475 888.9653,590.9225 Q888.9653,587.7975 890.2778,586.1413 Q891.6059,584.485 894.1059,584.485 Q894.8091,584.485 895.4497,584.6413 Q896.1059,584.7975 896.6684,585.0944 L896.6684,587.8131 Q896.0434,587.235 895.4497,586.9694 Q894.8559,586.6881 894.2309,586.6881 Q892.8872,586.6881 892.1997,587.7663 Q891.5122,588.8288 891.5122,590.9225 Q891.5122,593.0163 892.1997,594.0944 Q892.8872,595.1569 894.2309,595.1569 Q894.8559,595.1569 895.4497,594.8913 Q896.0434,594.61 896.6684,594.0319 L896.6684,596.7506 Z " fill="#000000"/><text fill="#000000" font-family="sans-serif" font-size="14" lengthAdjust="spacing" textLength="70.1504" x="914.1997" y="595.9567">Timetable</text><line style="stroke:#181818;stroke-width:0.5;" x1="766.02" x2="1100.0298" y1="607.11" y2="607.11"/><rect fill="none" height="6" style="stroke:#C82930;stroke-width:1;" width="6" x="773.02" y="617.7584"/><text fill="#000000" font-family="sans-serif" font-size="14" lengthAdjust="spacing" textLength="240.3447" x="785.02" y="624.1051">timetable : ClassSubjectInstance[]</text><rect fill="none" height="6" style="stroke:#C82930;stroke-width:1;" width="6" x="773.02" y="634.0553"/><text fill="#000000" font-family="sans-serif" font-size="14" lengthAdjust="spacing" textLength="283.0557" x="785.02" y="640.402">classSubjects : ArrayList&lt;ClassSubject&gt;</text><rect fill="none" height="6" style="stroke:#C82930;stroke-width:1;" width="6" x="773.02" y="650.3522"/><text fill="#000000" font-family="sans-serif" font-size="14" lengthAdjust="spacing" textLength="217.1025" x="785.02" y="656.6989">teachers : ArrayList&lt;Teacher&gt;</text><line style="stroke:#181818;stroke-width:0.5;" x1="766.02" x2="1100.0298" y1="664.0006" y2="664.0006"/><ellipse cx="776.02" cy="677.6491" fill="#84BE84" rx="3" ry="3" style="stroke:#038048;stroke-width:1;"/><text fill="#000000" font-family="sans-serif" font-size="14" lengthAdjust="spacing" textLength="277.3203" x="785.02" y="680.9957">getTimetable() : ClassSubjectInstance[]</text><ellipse cx="776.02" cy="693.9459" fill="#84BE84" rx="3" ry="3" style="stroke:#038048;stroke-width:1;"/><text fill="#000000" font-family="sans-serif" font-size="14" lengthAdjust="spacing" textLength="310.0098" x="785.02" y="697.2926">initializeArrayWithTotalWeeklyHours() : void</text><ellipse cx="776.02" cy="710.2428" fill="#84BE84" rx="3" ry="3" style="stroke:#038048;stroke-width:1;"/><text fill="#000000" font-family="sans-serif" font-size="14" lengthAdjust="spacing" textLength="230.3984" x="785.02" y="713.5895">createRandomTimeTable() : void</text></g><!--class DataRepository--><g class="entity" data-entity="DataRepository" data-source-line="88" data-uid="ent0015" id="entity_DataRepository"><rect fill="#F1F1F1" height="276.1563" rx="2.5" ry="2.5" style="stroke:#181818;stroke-width:0.5;" width="407.459" x="1170.87" y="476.92"/><ellipse cx="1316.0995" cy="492.92" fill="#ADD1B2" rx="11" ry="11" style="stroke:#181818;stroke-width:1;"/><path d="M1319.0682,498.5606 Q1318.4901,498.8575 1317.8495,498.9981 Q1317.2089,499.1544 1316.5057,499.1544 Q1314.0057,499.1544 1312.6776,497.5138 Q1311.3651,495.8575 1311.3651,492.7325 Q1311.3651,489.6075 1312.6776,487.9513 Q1314.0057,486.295 1316.5057,486.295 Q1317.2089,486.295 1317.8495,486.4513 Q1318.5057,486.6075 1319.0682,486.9044 L1319.0682,489.6231 Q1318.4432,489.045 1317.8495,488.7794 Q1317.2557,488.4981 1316.6307,488.4981 Q1315.287,488.4981 1314.5995,489.5763 Q1313.912,490.6388 1313.912,492.7325 Q1313.912,494.8263 1314.5995,495.9044 Q1315.287,496.9669 1316.6307,496.9669 Q1317.2557,496.9669 1317.8495,496.7013 Q1318.4432,496.42 1319.0682,495.8419 L1319.0682,498.5606 Z " fill="#000000"/><text fill="#000000" font-family="sans-serif" font-size="14" lengthAdjust="spacing" textLength="108.5" x="1336.5995" y="497.7667">DataRepository</text><line style="stroke:#181818;stroke-width:0.5;" x1="1171.87" x2="1577.329" y1="508.92" y2="508.92"/><rect fill="none" height="6" style="stroke:#C82930;stroke-width:1;" width="6" x="1178.87" y="519.5684"/><text fill="#000000" font-family="sans-serif" font-size="14" lengthAdjust="spacing" textLength="283.0557" x="1190.87" y="525.9151">classSubjects : ArrayList&lt;ClassSubject&gt;</text><rect fill="none" height="6" style="stroke:#C82930;stroke-width:1;" width="6" x="1178.87" y="535.8653"/><text fill="#000000" font-family="sans-serif" font-size="14" lengthAdjust="spacing" textLength="217.1025" x="1190.87" y="542.212">teachers : ArrayList&lt;Teacher&gt;</text><rect fill="none" height="6" style="stroke:#C82930;stroke-width:1;" width="6" x="1178.87" y="552.1622"/><text fill="#000000" font-family="sans-serif" font-size="14" lengthAdjust="spacing" textLength="183.8184" x="1190.87" y="558.5089">rooms : ArrayList&lt;Room&gt;</text><rect fill="none" height="6" style="stroke:#C82930;stroke-width:1;" width="6" x="1178.87" y="568.4591"/><text fill="#000000" font-family="sans-serif" font-size="14" lengthAdjust="spacing" text-decoration="underline" textLength="181.4258" x="1190.87" y="574.8057">instance : DataRepository</text><text fill="#000000" font-family="sans-serif" font-size="14" lengthAdjust="spacing" textLength="4.4502" x="1190.87" y="591.1026">&#160;</text><ellipse cx="1181.87" cy="604.0528" fill="none" rx="3" ry="3" style="stroke:#038048;stroke-width:1;"/><text fill="#000000" font-family="sans-serif" font-size="14" lengthAdjust="spacing" text-decoration="underline" textLength="200.2041" x="1190.87" y="607.3995">getInstance: DataRepository</text><line style="stroke:#181818;stroke-width:0.5;" x1="1171.87" x2="1577.329" y1="614.7013" y2="614.7013"/><rect fill="#F24D5C" height="6" style="stroke:#C82930;stroke-width:1;" width="6" x="1178.87" y="625.3497"/><text fill="#000000" font-family="sans-serif" font-size="14" lengthAdjust="spacing" textLength="119.4238" x="1190.87" y="631.6964">DataRepository()</text><ellipse cx="1181.87" cy="644.6466" fill="#84BE84" rx="3" ry="3" style="stroke:#038048;stroke-width:1;"/><text fill="#000000" font-family="sans-serif" font-size="14" lengthAdjust="spacing" textLength="319.0469" x="1190.87" y="647.9932">getClassSubjects() : ArrayList&lt;ClassSubject&gt;</text><ellipse cx="1181.87" cy="660.9434" fill="#84BE84" rx="3" ry="3" style="stroke:#038048;stroke-width:1;"/><text fill="#000000" font-family="sans-serif" font-size="14" lengthAdjust="spacing" textLength="254.0781" x="1190.87" y="664.2901">getTeachers() : ArrayList&lt;Teacher&gt;</text><ellipse cx="1181.87" cy="677.2403" fill="#84BE84" rx="3" ry="3" style="stroke:#038048;stroke-width:1;"/><text fill="#000000" font-family="sans-serif" font-size="14" lengthAdjust="spacing" textLength="221.7031" x="1190.87" y="680.587">getRooms() : ArrayList&lt;Room&gt;</text><text fill="#000000" font-family="sans-serif" font-size="14" lengthAdjust="spacing" textLength="4.4502" x="1190.87" y="696.8839">&#160;</text><ellipse cx="1181.87" cy="709.8341" fill="#84BE84" rx="3" ry="3" style="stroke:#038048;stroke-width:1;"/><text fill="#000000" font-family="sans-serif" font-size="14" lengthAdjust="spacing" textLength="283.0215" x="1190.87" y="713.1807">addTeacher(teacher: Teacher) : boolean</text><ellipse cx="1181.87" cy="726.1309" fill="#84BE84" rx="3" ry="3" style="stroke:#038048;stroke-width:1;"/><text fill="#000000" font-family="sans-serif" font-size="14" lengthAdjust="spacing" textLength="218.0732" x="1190.87" y="729.4776">addRoom(room: Room) : Room</text><ellipse cx="1181.87" cy="742.4278" fill="#84BE84" rx="3" ry="3" style="stroke:#038048;stroke-width:1;"/><text fill="#000000" font-family="sans-serif" font-size="14" lengthAdjust="spacing" textLength="381.459" x="1190.87" y="745.7745">addClassSubject(classSubject: ClassSubject) : boolean</text></g><!--class SimulatedAnnealingAlgorithm--><g class="entity" data-entity="SimulatedAnnealingAlgorithm" data-source-line="107" data-uid="ent0017" id="entity_SimulatedAnnealingAlgorithm"><rect fill="#F1F1F1" height="259.8594" rx="2.5" ry="2.5" style="stroke:#181818;stroke-width:0.5;" width="661.1816" x="22" y="473.07"/><ellipse cx="243.6587" cy="489.07" fill="#ADD1B2" rx="11" ry="11" style="stroke:#181818;stroke-width:1;"/><path d="M246.6274,494.7106 Q246.0493,495.0075 245.4087,495.1481 Q244.7681,495.3044 244.0649,495.3044 Q241.5649,495.3044 240.2368,493.6638 Q238.9243,492.0075 238.9243,488.8825 Q238.9243,485.7575 240.2368,484.1013 Q241.5649,482.445 244.0649,482.445 Q244.7681,482.445 245.4087,482.6013 Q246.0649,482.7575 246.6274,483.0544 L246.6274,485.7731 Q246.0024,485.195 245.4087,484.9294 Q244.8149,484.6481 244.1899,484.6481 Q242.8462,484.6481 242.1587,485.7263 Q241.4712,486.7888 241.4712,488.8825 Q241.4712,490.9763 242.1587,492.0544 Q242.8462,493.1169 244.1899,493.1169 Q244.8149,493.1169 245.4087,492.8513 Q246.0024,492.57 246.6274,491.9919 L246.6274,494.7106 Z " fill="#000000"/><text fill="#000000" font-family="sans-serif" font-size="14" lengthAdjust="spacing" textLength="209.3643" x="264.1587" y="493.9167">SimulatedAnnealingAlgorithm</text><line style="stroke:#181818;stroke-width:0.5;" x1="23" x2="682.1816" y1="505.07" y2="505.07"/><rect fill="none" height="6" style="stroke:#C82930;stroke-width:1;" width="6" x="30" y="515.7184"/><text fill="#000000" font-family="sans-serif" font-size="14" lengthAdjust="spacing" textLength="274.5518" x="42" y="522.0651">currTimeTable : ClassSubjectInstance[]</text><rect fill="none" height="6" style="stroke:#C82930;stroke-width:1;" width="6" x="30" y="532.0153"/><text fill="#000000" font-family="sans-serif" font-size="14" lengthAdjust="spacing" textLength="277.7305" x="42" y="538.362">nextTimeTable : ClassSubjectInstance[]</text><rect fill="none" height="6" style="stroke:#C82930;stroke-width:1;" width="6" x="30" y="548.3122"/><text fill="#000000" font-family="sans-serif" font-size="14" lengthAdjust="spacing" textLength="183.8184" x="42" y="554.6589">rooms : ArrayList&lt;Room&gt;</text><rect fill="none" height="6" style="stroke:#C82930;stroke-width:1;" width="6" x="30" y="564.6091"/><text fill="#000000" font-family="sans-serif" font-size="14" lengthAdjust="spacing" textLength="217.1025" x="42" y="570.9557">teachers : ArrayList&lt;Teacher&gt;</text><rect fill="none" height="6" style="stroke:#C82930;stroke-width:1;" width="6" x="30" y="580.9059"/><text fill="#000000" font-family="sans-serif" font-size="14" lengthAdjust="spacing" textLength="149.6387" x="42" y="587.2526">temperature : double</text><line style="stroke:#181818;stroke-width:0.5;" x1="23" x2="682.1816" y1="594.5544" y2="594.5544"/><ellipse cx="33" cy="608.2028" fill="#84BE84" rx="3" ry="3" style="stroke:#038048;stroke-width:1;"/><text fill="#000000" font-family="sans-serif" font-size="14" lengthAdjust="spacing" textLength="325.3154" x="42" y="611.5495">duplicateTimeTableIntoNextTimeTable() : void</text><ellipse cx="33" cy="624.4997" fill="#84BE84" rx="3" ry="3" style="stroke:#038048;stroke-width:1;"/><text fill="#000000" font-family="sans-serif" font-size="14" lengthAdjust="spacing" textLength="635.1816" x="42" y="627.8464">acceptSolution(costCurrTimeTable: int, costNextTable: int, temperature: double) : boolean</text><ellipse cx="33" cy="640.7966" fill="#84BE84" rx="3" ry="3" style="stroke:#038048;stroke-width:1;"/><text fill="#000000" font-family="sans-serif" font-size="14" lengthAdjust="spacing" textLength="325.2881" x="42" y="644.1432">pushTemperature(pushAmount: double) : void</text><ellipse cx="33" cy="657.0934" fill="#84BE84" rx="3" ry="3" style="stroke:#038048;stroke-width:1;"/><text fill="#000000" font-family="sans-serif" font-size="14" lengthAdjust="spacing" textLength="422.2217" x="42" y="660.4401">swapPeriods(firstIndex: short, secondIndex: short) : boolean</text><ellipse cx="33" cy="673.3903" fill="#84BE84" rx="3" ry="3" style="stroke:#038048;stroke-width:1;"/><text fill="#000000" font-family="sans-serif" font-size="14" lengthAdjust="spacing" textLength="417.5049" x="42" y="676.737">changeRoom(classSubject: ClassSubjectInstance) : boolean</text><ellipse cx="33" cy="689.6872" fill="#84BE84" rx="3" ry="3" style="stroke:#038048;stroke-width:1;"/><text fill="#000000" font-family="sans-serif" font-size="14" lengthAdjust="spacing" textLength="433.6924" x="42" y="693.0339">changeTeacher(classSubject: ClassSubjectInstance) : boolean</text><ellipse cx="33" cy="705.9841" fill="#84BE84" rx="3" ry="3" style="stroke:#038048;stroke-width:1;"/><text fill="#000000" font-family="sans-serif" font-size="14" lengthAdjust="spacing" textLength="354.7783" x="42" y="709.3307">decreaseTemperature(temperature: double) : void</text><ellipse cx="33" cy="722.2809" fill="#84BE84" rx="3" ry="3" style="stroke:#038048;stroke-width:1;"/><text fill="#000000" font-family="sans-serif" font-size="14" lengthAdjust="spacing" textLength="382.1836" x="42" y="725.6276">determineCost(timetable: ClassSubjectInstance[]) : int</text></g><!--link Teacher to Period--><g class="link" data-entity-1="Teacher" data-entity-2="Period" data-source-line="126" data-uid="lnk18" id="link_Teacher_Period"><path codeLine="126" d="M2091.32,228.33 C2125.01,228.33 2152.2,228.33 2181.3,228.33" fill="none" id="Teacher-to-Period" style="stroke:#181818;stroke-width:1;"/><polygon fill="#181818" points="2187.3,228.33,2178.3,224.33,2182.3,228.33,2178.3,232.33,2187.3,228.33" style="stroke:#181818;stroke-width:1;"/><text fill="#000000" font-family="sans-serif" font-size="13" lengthAdjust="spacing" textLength="35.3628" x="2143.9112" y="240.977">takes</text></g><!--link Teacher to Subject--><g class="link" data-entity-1="Teacher" data-entity-2="Subject" data-source-line="127" data-uid="lnk19" id="link_Teacher_Subject"><path codeLine="127" d="M2091.32,344 C2111.43,344 2125.38,344 2144.37,344" fill="none" id="Teacher-to-Subject" style="stroke:#181818;stroke-width:1;"/><polygon fill="#181818" points="2150.37,344,2141.37,340,2145.37,344,2141.37,348,2150.37,344" style="stroke:#181818;stroke-width:1;"/><text fill="#000000" font-family="sans-serif" font-size="13" lengthAdjust="spacing" textLength="51.2192" x="2091.6574" y="356.4335">teaches</text></g><!--link Subject to RoomTypes--><g class="link" data-entity-1="Subject" data-entity-2="RoomTypes" data-source-line="129" data-uid="lnk20" id="link_Subject_RoomTypes"><path codeLine="129" d="M2417.74,360.28 C2442.94,360.28 2462.03,360.28 2483.28,360.28" fill="none" id="Subject-to-RoomTypes" style="stroke:#181818;stroke-width:1;"/><polygon fill="#181818" points="2489.28,360.28,2480.28,356.28,2484.28,360.28,2480.28,364.28,2489.28,360.28" style="stroke:#181818;stroke-width:1;"/><text fill="#000000" font-family="sans-serif" font-size="13" lengthAdjust="spacing" textLength="88.7847" x="2426.4076" y="374.2176">might require</text></g><!--link Room to RoomTypes--><g class="link" data-entity-1="Room" data-entity-2="RoomTypes" data-source-line="131" data-uid="lnk21" id="link_Room_RoomTypes"><path codeLine="131" d="M1976.21,458 C2120.87,458 2369.57,458 2483.16,458" fill="none" id="Room-to-RoomTypes" style="stroke:#181818;stroke-width:1;"/><polygon fill="#181818" points="2489.16,458,2480.16,454,2484.16,458,2480.16,462,2489.16,458" style="stroke:#181818;stroke-width:1;"/><text fill="#000000" font-family="sans-serif" font-size="13" lengthAdjust="spacing" textLength="22.9785" x="2458.4457" y="478.3392">has</text></g><!--link Period to SchoolDays--><g class="link" data-entity-1="Period" data-entity-2="SchoolDays" data-source-line="133" data-uid="lnk22" id="link_Period_SchoolDays"><path codeLine="133" d="M2381.19,228 C2417.7,228 2452,228 2483.69,228" fill="none" id="Period-to-SchoolDays" style="stroke:#181818;stroke-width:1;"/><polygon fill="#181818" points="2489.69,228,2480.69,224,2484.69,228,2480.69,232,2489.69,228" style="stroke:#181818;stroke-width:1;"/><text fill="#000000" font-family="sans-serif" font-size="13" lengthAdjust="spacing" textLength="13.0635" x="2468.9587" y="240.989">at</text></g><!--link ClassSubject to Teacher--><g class="link" data-entity-1="ClassSubject" data-entity-2="Teacher" data-source-line="135" data-uid="lnk23" id="link_ClassSubject_Teacher"><path codeLine="135" d="M1383.0923,218 C1383.2348,218 1383.3789,218 1383.5247,218 C1384.1079,218 1384.718,218 1385.3544,218 C1390.4457,218 1397.2227,218 1405.423,218 C1421.8234,218 1443.9169,218 1469.6038,218 C1520.9775,218 1580.725,218 1644.05,218" fill="none" id="ClassSubject-to-Teacher" style="stroke:#181818;stroke-width:1;"/><polygon fill="#181818" points="1650.05,218,1641.05,214,1645.05,218,1641.05,222,1650.05,218" style="stroke:#181818;stroke-width:1;"/><text fill="#000000" font-family="sans-serif" font-size="13" lengthAdjust="spacing" textLength="69.418" x="1572.6891" y="227.5588">references</text></g><!--link ClassSubject to Subject--><g class="link" data-entity-1="ClassSubject" data-entity-2="Subject" data-source-line="136" data-uid="lnk24" id="link_ClassSubject_Subject"><path codeLine="136" d="M1386.199,175.15 C1387.4106,175.15 1388.6297,175.15 1389.8564,175.15 C1392.3096,175.15 1394.7928,175.15 1397.305,175.15 C1402.3294,175.15 1407.47,175.15 1412.72,175.15 C1496.72,175.15 1608.72,175.15 1720.72,175.15 C1944.72,175.15 2168.72,175.15 2168.72,175.15 C2168.72,175.15 2168.72,247.6 2168.72,297.56" fill="none" id="ClassSubject-to-Subject" style="stroke:#181818;stroke-width:1;"/><polygon fill="#181818" points="2168.72,303.56,2172.72,294.56,2168.72,298.56,2164.72,294.56,2168.72,303.56" style="stroke:#181818;stroke-width:1;"/><text fill="#000000" font-family="sans-serif" font-size="13" lengthAdjust="spacing" textLength="69.418" x="2074.9129" y="292.6983">references</text></g><!--link ClassSubject to Room--><g class="link" data-entity-1="ClassSubject" data-entity-2="Room" data-source-line="137" data-uid="lnk25" id="link_ClassSubject_Room"><path codeLine="137" d="M1374.72,367.4545 C1374.72,374.6597 1374.72,381.7289 1374.72,388.5538 C1374.72,402.2036 1374.72,414.8765 1374.72,425.707 C1374.72,447.3681 1374.72,461.66 1374.72,461.66 C1374.72,461.66 1613.18,461.66 1758.81,461.66" fill="none" id="ClassSubject-to-Room" style="stroke:#181818;stroke-width:1;"/><polygon fill="#181818" points="1764.81,461.66,1755.81,457.66,1759.81,461.66,1755.81,465.66,1764.81,461.66" style="stroke:#181818;stroke-width:1;"/><text fill="#000000" font-family="sans-serif" font-size="13" lengthAdjust="spacing" textLength="69.418" x="1687.7132" y="471.0805">references</text></g><!--link ClassSubjectInstance to ClassSubject--><g class="link" data-entity-1="ClassSubjectInstance" data-entity-2="ClassSubject" data-source-line="139" data-uid="lnk26" id="link_ClassSubjectInstance_ClassSubject"><path codeLine="139" d="M1041.36,160.1 C1172.13,160.1 1374.72,160.1 1374.72,160.1 C1374.72,160.1 1374.72,204.99 1374.72,211.35" fill="none" id="ClassSubjectInstance-to-ClassSubject" style="stroke:#181818;stroke-width:1;"/><polygon fill="#181818" points="1374.72,217.35,1378.72,208.35,1374.72,212.35,1370.72,208.35,1374.72,217.35" style="stroke:#181818;stroke-width:1;"/><text fill="#000000" font-family="sans-serif" font-size="13" lengthAdjust="spacing" textLength="69.418" x="1305.72" y="229.4169">references</text></g><!--link ClassSubjectInstance to Period--><g class="link" data-entity-1="ClassSubjectInstance" data-entity-2="Period" data-source-line="140" data-uid="lnk27" id="link_ClassSubjectInstance_Period"><path codeLine="140" d="M1041.27,157.6 C1361.79,157.6 2283.72,157.6 2283.72,157.6 C2283.72,157.6 2283.72,165.81 2283.72,181.46" fill="none" id="ClassSubjectInstance-to-Period" style="stroke:#181818;stroke-width:1;"/><polygon fill="#181818" points="2283.72,187.46,2287.72,178.46,2283.72,182.46,2279.72,178.46,2283.72,187.46" style="stroke:#181818;stroke-width:1;"/><text fill="#000000" font-family="sans-serif" font-size="13" lengthAdjust="spacing" textLength="69.418" x="2208.9592" y="176.5818">references</text></g><!--link Timetable to DataRepository--><g class="link" data-entity-1="Timetable" data-entity-2="DataRepository" data-source-line="142" data-uid="lnk28" id="link_Timetable_DataRepository"><path codeLine="142" d="M1101.22,648 C1123.89,648 1141.34,648 1164.54,648" fill="none" id="Timetable-to-DataRepository" style="stroke:#181818;stroke-width:1;"/><polygon fill="#181818" points="1170.54,648,1161.54,644,1165.54,648,1161.54,652,1170.54,648" style="stroke:#181818;stroke-width:1;"/><text fill="#000000" font-family="sans-serif" font-size="13" lengthAdjust="spacing" textLength="97.9634" x="1063.6935" y="670.1168">gets Data from</text></g><!--link SimulatedAnnealingAlgorithm to DataRepository--><g class="link" data-entity-1="SimulatedAnnealingAlgorithm" data-entity-2="DataRepository" data-source-line="144" data-uid="lnk29" id="link_SimulatedAnnealingAlgorithm_DataRepository"><path codeLine="144" d="M683.35,526.02 C843.7,526.02 1025.22,526.02 1164.45,526.02" fill="none" id="SimulatedAnnealingAlgorithm-to-DataRepository" style="stroke:#181818;stroke-width:1;"/><polygon fill="#181818" points="1170.45,526.02,1161.45,522.02,1165.45,526.02,1161.45,530.02,1170.45,526.02" style="stroke:#181818;stroke-width:1;"/><text fill="#000000" font-family="sans-serif" font-size="13" lengthAdjust="spacing" textLength="97.9634" x="1065.1757" y="535.4156">gets Data from</text></g><!--link SimulatedAnnealingAlgorithm to Timetable--><g class="link" data-entity-1="SimulatedAnnealingAlgorithm" data-entity-2="Timetable" data-source-line="145" data-uid="lnk30" id="link_SimulatedAnnealingAlgorithm_Timetable"><path codeLine="145" d="M683.5,648 C711.38,648 732.74,648 758.54,648" fill="none" id="SimulatedAnnealingAlgorithm-to-Timetable" style="stroke:#181818;stroke-width:1;"/><polygon fill="#181818" points="764.54,648,755.54,644,759.54,648,755.54,652,764.54,648" style="stroke:#181818;stroke-width:1;"/><text fill="#000000" font-family="sans-serif" font-size="13" lengthAdjust="spacing" textLength="48.3247" x="708.4264" y="660.3861">creates</text></g><!--link DataRepository to Data--><g class="link" data-entity-1="DataRepository" data-entity-2="Data" data-source-line="147" data-uid="lnk31" id="link_DataRepository_Data"><path codeLine="147" d="M1578.48,615 C1586.6956,615 1594.978,615 1603.2895,615 C1607.4452,615 1611.6083,615 1615.7738,615 C1617.8566,615 1619.9401,615 1622.0236,615 C1623.0653,615 1618.1071,615 1619.1488,615" fill="none" id="DataRepository-to-Data" style="stroke:#181818;stroke-width:1;"/><polygon fill="#181818" points="1625.1488,615,1616.1488,611,1620.1488,615,1616.1488,619,1625.1488,615" style="stroke:#181818;stroke-width:1;"/><text fill="#000000" font-family="sans-serif" font-size="13" lengthAdjust="spacing" textLength="48.3247" x="1821.87" y="627.0669">creates</text></g><!--SRC=[jLTHR-Cs37xthn3obEAkVo0O2cHDXWJRfK7ihXY6FIWsasYnfKoIxveT-jz7oP8jEKxQ3LXVQeaKHNxyA38bx3JHWaYsFsXIC0cvPe8dwiZuYKfQaP9nqESJ427rGIJ9YUP7kWSoclEwKYFoFI44y9DiXAWoL5Hso_pDPx-whyV5_8lxN2z-Sr_f-ccJkU-NfytFwU9fZSktn5jCyuCGvOoUEvDVdbQpgJUGFS_JRlKodwt2TRPutWJBdpRBRf5Ei-TDitnBteAWPbJJ9gQyf4gH36X-0DdUVqzqixEY5P09IRLaVDyAEUwcvsehoakPfaVWQv1C50gbKodf-HUcz0_DtaDy0vvCw-sVc8v8r-qz94xx4zc3pZgNndVzYwt6glNhYa8ME6TLhhdNNTXvs3jmwIDwbn-NE-Tdyq_vmweDq-qOQrjCF51-nSBqAsKbtPQmT3wFJ_OV7cpMiGdBg2QV7jCkd-xwuNnA-Al6cYWyjr6ZfVdlVyIcZI2mAt6vggijacT2r06h9nODtuUIjOGTUnsMfVNkggoflHiEDj24eVlwCWRRMkk95w8E8uZBvT4OTfY6PHFkNzOEcdE9x6UX8m5fHTy0ZkNPkA4kaMpoesQYHZQiFGbYzjmJfdu4hK5UKMjPXawpFRVE6nINkvL8Jv0pMdfGBTM_2bR4q8RnBhdIbESGn9s7S4mYxIY5BdljNe_LDt6C4vEn2Z9J8IFdXdlES5kRxTOvQwxTdGn6Oeaq54lyZeL77qBpZO-nidEyqsi_cXV6ksG1VyUfJuHnfZ5Bx6-mDxmmVSY4fkLBnvqmS-sh8e5gs51UO7OzOh7YMnB0Pxh31av2CItaESBm_uAb8KQiP3WIQdn7H3JBtn06Hxr9pzKaq8ubuxi0ZzOGPi3ZV64gobCONBzn30SUTgp-YOlehR89jw_PG13eqQ9mfySEsBOuBlk9Es2CZ0syJTdTnUNdbC8enc6MOrhsBudAaPPx8P6JLLICAQlg4lbNJ3a792_VJtjwZbgrb2qxFrAY75xrlphmFiK-IbOD5JvQLDVIN5pOzpPCKr6VIfPZqAr_Iwx5AdHug51fdiD9fwAipNGwpeNIZo4g4wI-_apClhKLx0KUUOU62N6grI7hbCTcFQr4pNLuhkUO-aPFVcpQCQaGtm9UNPlwJ1JaWXVXtl3T-O7oFLW-NgUOJzqj4xu6_gkL0ioRg204uWg2FIGAm0PRuO-5Hqp2k6qfrzXdB61-kbf9_AXzV_z0HcPOnXyNhk_5ecPy7Fb98KbyPxNYolwISOF1g9k6aiGEQ5RdG5KaSHE1bL4SP89XA8b66Qk1ynb8m2ZGYE-_jxMyfxUrxDkJ38uI5xhn3F6nCmxCf1i2h0g-i4rd8pifgj55vxZrJ7t4mBldcovimFIE9KclqyPwHeY4-GS0]--></g></svg>