<?xml version="1.0" encoding="UTF-8"?>
<svg id="Ebene_2" data-name="Ebene 2" xmlns="http://www.w3.org/2000/svg" viewBox="0 0 586.99 88.83">
  <defs>
    <style>
      .cls-1 {
        fill: none;
        stroke: #fff;
        stroke-linecap: round;
        stroke-width: 4px;
      }

      .cls-2 {
        fill: #f7f7fc;
      }
    </style>
  </defs>
  <g id="Ebene_3" data-name="Ebene 3">
    <g>
      <path class="cls-2" d="M17.4,10.55v62.52h35.27c2.81,0,4.97.68,6.47,2.05,1.5,1.37,2.26,3.09,2.26,5.16s-.74,3.82-2.23,5.13c-1.48,1.31-3.65,1.96-6.5,1.96H10.66c-3.79,0-6.51-.84-8.17-2.52-1.66-1.68-2.49-4.39-2.49-8.14V10.55c0-3.52.79-6.15,2.37-7.91S6.04,0,8.61,0s4.74.87,6.36,2.61c1.62,1.74,2.43,4.39,2.43,7.94Z"/>
      <path class="cls-2" d="M116.37,60.23h-31.29c.04,3.63.77,6.84,2.2,9.61,1.43,2.77,3.32,4.86,5.68,6.27,2.36,1.41,4.97,2.11,7.82,2.11,1.91,0,3.66-.22,5.24-.67,1.58-.45,3.11-1.15,4.6-2.11,1.48-.96,2.85-1.98,4.1-3.08,1.25-1.09,2.87-2.58,4.86-4.45.82-.7,1.99-1.05,3.52-1.05,1.64,0,2.97.45,3.98,1.35,1.02.9,1.52,2.17,1.52,3.81,0,1.45-.57,3.13-1.7,5.07-1.13,1.93-2.84,3.79-5.13,5.57-2.29,1.78-5.16,3.25-8.61,4.42s-7.43,1.76-11.92,1.76c-10.27,0-18.26-2.93-23.96-8.79-5.7-5.86-8.55-13.81-8.55-23.85,0-4.73.7-9.11,2.11-13.15s3.46-7.51,6.15-10.4c2.7-2.89,6.02-5.11,9.96-6.65,3.94-1.54,8.32-2.31,13.12-2.31,6.25,0,11.61,1.32,16.08,3.96,4.47,2.64,7.82,6.05,10.05,10.22,2.23,4.18,3.34,8.44,3.34,12.77,0,4.02-1.15,6.63-3.46,7.82-2.31,1.19-5.55,1.79-9.73,1.79ZM85.08,51.15h29c-.39-5.47-1.87-9.56-4.42-12.28-2.56-2.71-5.93-4.07-10.11-4.07s-7.26,1.38-9.81,4.13c-2.56,2.75-4.11,6.83-4.66,12.22Z"/>
      <path class="cls-2" d="M202.91,56.31c0,4.77-.74,9.16-2.23,13.18-1.48,4.02-3.63,7.48-6.45,10.37-2.81,2.89-6.17,5.11-10.08,6.65-3.91,1.54-8.3,2.31-13.18,2.31s-9.2-.78-13.07-2.34-7.22-3.8-10.05-6.71c-2.83-2.91-4.98-6.35-6.45-10.31-1.46-3.96-2.2-8.35-2.2-13.15s.74-9.28,2.23-13.3c1.48-4.02,3.61-7.46,6.39-10.31,2.77-2.85,6.13-5.05,10.08-6.59,3.94-1.54,8.3-2.31,13.07-2.31s9.24.78,13.18,2.34c3.94,1.56,7.32,3.79,10.14,6.68,2.81,2.89,4.95,6.33,6.42,10.31s2.2,8.38,2.2,13.18ZM186.86,56.31c0-6.52-1.44-11.6-4.31-15.23s-6.73-5.45-11.57-5.45c-3.13,0-5.88.81-8.26,2.43-2.38,1.62-4.22,4.01-5.51,7.18s-1.93,6.86-1.93,11.07.63,7.83,1.9,10.96c1.27,3.13,3.09,5.52,5.45,7.18,2.36,1.66,5.15,2.49,8.35,2.49,4.84,0,8.7-1.83,11.57-5.48,2.87-3.65,4.31-8.7,4.31-15.15Z"/>
      <path class="cls-2" d="M249.96,53.91h-15.94v24.32c0,3.48-.82,6.11-2.46,7.91s-3.71,2.7-6.21,2.7-4.73-.89-6.33-2.67c-1.6-1.78-2.4-4.38-2.4-7.82V12.13c0-3.83.88-6.56,2.64-8.2s4.55-2.46,8.38-2.46h22.32c6.6,0,11.68.51,15.23,1.52,3.52.98,6.55,2.6,9.11,4.86,2.56,2.27,4.5,5.04,5.83,8.32s1.99,6.97,1.99,11.07c0,8.75-2.7,15.38-8.09,19.89s-13.42,6.77-24.08,6.77ZM245.74,14.53h-11.72v26.25h11.72c4.1,0,7.53-.43,10.28-1.29,2.75-.86,4.85-2.27,6.3-4.22,1.45-1.95,2.17-4.51,2.17-7.68,0-3.79-1.11-6.87-3.34-9.26-2.5-2.54-7.64-3.81-15.41-3.81Z"/>
      <path class="cls-2" d="M295.55,79.1V9.73c0-3.2.71-5.62,2.14-7.27,1.43-1.64,3.35-2.46,5.77-2.46s4.37.81,5.86,2.43c1.48,1.62,2.23,4.05,2.23,7.29v69.38c0,3.24-.75,5.67-2.26,7.29-1.5,1.62-3.45,2.43-5.83,2.43s-4.25-.84-5.71-2.52-2.2-4.08-2.2-7.21Z"/>
      <path class="cls-2" d="M368.5,79.8c-3.87,3.01-7.61,5.26-11.22,6.77-3.61,1.5-7.67,2.26-12.16,2.26-4.1,0-7.71-.81-10.81-2.43s-5.5-3.82-7.18-6.59c-1.68-2.77-2.52-5.78-2.52-9.02,0-4.37,1.39-8.1,4.16-11.19,2.77-3.09,6.58-5.16,11.43-6.21,1.02-.23,3.54-.76,7.56-1.58,4.02-.82,7.47-1.57,10.34-2.26,2.87-.68,5.99-1.51,9.35-2.49-.2-4.22-1.05-7.31-2.55-9.29-1.5-1.97-4.62-2.96-9.35-2.96-4.06,0-7.12.57-9.17,1.7-2.05,1.13-3.81,2.83-5.27,5.1-1.46,2.27-2.5,3.76-3.11,4.48-.61.72-1.9,1.08-3.9,1.08-1.8,0-3.35-.58-4.66-1.73-1.31-1.15-1.96-2.63-1.96-4.42,0-2.81,1-5.55,2.99-8.2,1.99-2.66,5.1-4.84,9.32-6.56,4.22-1.72,9.47-2.58,15.76-2.58,7.03,0,12.56.83,16.58,2.49,4.02,1.66,6.86,4.29,8.53,7.88,1.66,3.59,2.49,8.36,2.49,14.3,0,3.75,0,6.93-.03,9.55-.02,2.62-.05,5.53-.09,8.73,0,3.01.5,6.14,1.49,9.4,1,3.26,1.49,5.36,1.49,6.3,0,1.64-.77,3.13-2.31,4.48-1.54,1.35-3.29,2.02-5.24,2.02-1.64,0-3.26-.77-4.86-2.31-1.6-1.54-3.3-3.78-5.1-6.71ZM367.44,56.66c-2.34.86-5.75,1.77-10.22,2.72-4.47.96-7.57,1.66-9.29,2.11-1.72.45-3.36,1.33-4.92,2.64-1.56,1.31-2.34,3.13-2.34,5.48s.92,4.48,2.75,6.18c1.84,1.7,4.24,2.55,7.21,2.55,3.16,0,6.08-.69,8.76-2.08,2.67-1.39,4.64-3.17,5.89-5.36,1.44-2.42,2.17-6.41,2.17-11.95v-2.29Z"/>
      <path class="cls-2" d="M413.91,32.64v1.93c2.81-3.71,5.89-6.44,9.23-8.17,3.34-1.74,7.18-2.61,11.51-2.61s7.99.92,11.31,2.75c3.32,1.84,5.8,4.43,7.44,7.79,1.05,1.95,1.74,4.06,2.05,6.33.31,2.27.47,5.16.47,8.67v29.77c0,3.2-.73,5.62-2.2,7.27s-3.37,2.46-5.71,2.46-4.32-.84-5.8-2.52c-1.49-1.68-2.23-4.08-2.23-7.21v-26.66c0-5.27-.73-9.31-2.2-12.1-1.46-2.79-4.39-4.19-8.76-4.19-2.85,0-5.45.85-7.79,2.55s-4.06,4.03-5.16,7c-.78,2.38-1.17,6.84-1.17,13.36v20.04c0,3.24-.75,5.67-2.26,7.29-1.5,1.62-3.45,2.43-5.83,2.43s-4.2-.84-5.68-2.52c-1.49-1.68-2.23-4.08-2.23-7.21v-46.23c0-3.05.66-5.32,1.99-6.83,1.33-1.5,3.14-2.26,5.45-2.26,1.41,0,2.67.33,3.81,1,1.13.66,2.04,1.66,2.72,2.99.68,1.33,1.03,2.95,1.03,4.86Z"/>
      <path class="cls-2" d="M516.5,60.23h-31.29c.04,3.63.77,6.84,2.2,9.61,1.43,2.77,3.32,4.86,5.68,6.27,2.36,1.41,4.97,2.11,7.82,2.11,1.91,0,3.66-.22,5.24-.67,1.58-.45,3.11-1.15,4.6-2.11,1.48-.96,2.85-1.98,4.1-3.08,1.25-1.09,2.87-2.58,4.86-4.45.82-.7,1.99-1.05,3.52-1.05,1.64,0,2.97.45,3.98,1.35,1.02.9,1.52,2.17,1.52,3.81,0,1.45-.57,3.13-1.7,5.07-1.13,1.93-2.84,3.79-5.13,5.57-2.29,1.78-5.16,3.25-8.61,4.42s-7.43,1.76-11.92,1.76c-10.27,0-18.26-2.93-23.96-8.79-5.7-5.86-8.55-13.81-8.55-23.85,0-4.73.7-9.11,2.11-13.15s3.46-7.51,6.15-10.4c2.7-2.89,6.01-5.11,9.96-6.65,3.95-1.54,8.32-2.31,13.12-2.31,6.25,0,11.61,1.32,16.08,3.96,4.47,2.64,7.82,6.05,10.05,10.22,2.23,4.18,3.34,8.44,3.34,12.77,0,4.02-1.15,6.63-3.46,7.82-2.31,1.19-5.55,1.79-9.73,1.79ZM485.21,51.15h29c-.39-5.47-1.87-9.56-4.42-12.28-2.56-2.71-5.93-4.07-10.11-4.07s-7.26,1.38-9.81,4.13c-2.56,2.75-4.11,6.83-4.66,12.22Z"/>
      <path class="cls-2" d="M559.04,65.74v13.36c0,3.24-.76,5.67-2.29,7.29s-3.46,2.43-5.8,2.43-4.2-.82-5.68-2.46c-1.49-1.64-2.23-4.06-2.23-7.27v-44.53c0-7.19,2.6-10.78,7.79-10.78,2.66,0,4.57.84,5.74,2.52,1.17,1.68,1.82,4.16,1.93,7.44,1.91-3.28,3.88-5.76,5.89-7.44,2.01-1.68,4.7-2.52,8.06-2.52s6.62.84,9.79,2.52c3.16,1.68,4.75,3.91,4.75,6.68,0,1.95-.67,3.56-2.02,4.83-1.35,1.27-2.8,1.9-4.37,1.9-.59,0-2-.36-4.25-1.08-2.25-.72-4.23-1.08-5.95-1.08-2.34,0-4.26.62-5.74,1.85-1.49,1.23-2.64,3.06-3.46,5.48-.82,2.42-1.39,5.3-1.7,8.64-.31,3.34-.47,7.41-.47,12.22Z"/>
    </g>
    <path class="cls-1" d="M169.94,41.85v18.21l9.03,9.11"/>
  </g>
</svg>