<svg width="44" height="42" viewBox="0 0 44 42" fill="none" xmlns="http://www.w3.org/2000/svg">
<path d="M42.8597 38.9275C39.7066 33.4764 34.8476 29.5676 29.177 27.7147C31.9819 26.0449 34.1612 23.5005 35.3801 20.4723C36.599 17.4441 36.7902 14.0995 35.9243 10.9521C35.0583 7.80473 33.1832 5.02861 30.5868 3.05008C27.9904 1.07154 24.8164 0 21.552 0C18.2877 0 15.1136 1.07154 12.5172 3.05008C9.92085 5.02861 8.04571 7.80473 7.1798 10.9521C6.31388 14.0995 6.50505 17.4441 7.72397 20.4723C8.94289 23.5005 11.1221 26.0449 13.9271 27.7147C8.25648 29.5656 3.39746 33.4743 0.244372 38.9275C0.128743 39.116 0.0520469 39.3258 0.0188092 39.5445C-0.0144285 39.7632 -0.00353458 39.9863 0.0508482 40.2006C0.105231 40.415 0.202001 40.6163 0.335449 40.7927C0.468897 40.9691 0.636319 41.117 0.827838 41.2276C1.01936 41.3382 1.23109 41.4094 1.45055 41.4368C1.67001 41.4643 1.89275 41.4475 2.10563 41.3875C2.3185 41.3275 2.5172 41.2255 2.69001 41.0874C2.86281 40.9494 3.00621 40.7781 3.11175 40.5838C7.01222 33.8428 13.9064 29.8181 21.552 29.8181C29.1977 29.8181 36.0918 33.8428 39.9923 40.5838C40.0978 40.7781 40.2412 40.9494 40.414 41.0874C40.5868 41.2255 40.7855 41.3275 40.9984 41.3875C41.2113 41.4475 41.434 41.4643 41.6535 41.4368C41.873 41.4094 42.0847 41.3382 42.2762 41.2276C42.4677 41.117 42.6352 40.9691 42.7686 40.7927C42.9021 40.6163 42.9988 40.415 43.0532 40.2006C43.1076 39.9863 43.1185 39.7632 43.0852 39.5445C43.052 39.3258 42.9753 39.116 42.8597 38.9275ZM9.95828 14.9119C9.95828 12.6189 10.6382 10.3773 11.9122 8.47074C13.1861 6.56416 14.9968 5.07816 17.1153 4.20065C19.2338 3.32315 21.5649 3.09356 23.8139 3.5409C26.0628 3.98825 28.1286 5.09245 29.75 6.71386C31.3715 8.33528 32.4757 10.4011 32.923 12.6501C33.3704 14.899 33.1408 17.2301 32.2633 19.3486C31.3857 21.4671 29.8997 23.2778 27.9932 24.5517C26.0866 25.8257 23.8451 26.5056 21.552 26.5056C18.4782 26.5023 15.5312 25.2798 13.3576 23.1063C11.1841 20.9327 9.96157 17.9857 9.95828 14.9119Z" fill="black"/>
</svg>
